<?xml version="1.0" standalone="no"?>
<!DOCTYPE svg PUBLIC "-//W3C//DTD SVG 20010904//EN"
 "http://www.w3.org/TR/2001/REC-SVG-20010904/DTD/svg10.dtd">
<svg version="1.0" xmlns="http://www.w3.org/2000/svg"
 width="500.000000pt" height="500.000000pt" viewBox="0 0 500.000000 500.000000"
 preserveAspectRatio="xMidYMid meet">

<g transform="translate(0.000000,500.000000) scale(0.100000,-0.100000)"
fill="#000000" stroke="none">
<path d="M0 2500 l0 -2500 2500 0 2500 0 0 2500 0 2500 -2500 0 -2500 0 0
-2500z m1225 991 c22 -10 48 -28 58 -39 26 -29 46 -89 47 -139 l0 -43 -80 0
c-79 0 -80 0 -85 28 -13 60 -39 81 -82 66 -19 -6 -29 -17 -31 -35 -4 -34 10
-43 96 -63 41 -8 88 -23 106 -31 47 -22 76 -80 76 -149 0 -70 -18 -114 -59
-149 l-33 -27 61 0 c71 0 65 11 82 -157 7 -68 15 -123 19 -123 10 0 50 265 40
268 -6 2 -10 122 -10 303 l0 299 195 0 195 0 0 -70 0 -70 -115 0 -115 0 0 -40
0 -40 95 0 96 0 -3 -72 -3 -73 -92 -3 -93 -3 0 -44 0 -45 115 0 115 0 0 -65 0
-65 45 0 c42 0 45 -2 40 -22 -2 -13 -23 -138 -45 -278 -22 -140 -42 -265 -45
-277 -5 -22 -10 -23 -104 -23 l-99 0 -10 58 c-6 31 -18 105 -28 165 -10 59
-21 107 -24 107 -4 0 -19 -74 -35 -165 l-28 -165 -101 0 -101 0 -44 283 c-24
155 -46 287 -50 292 -3 6 -42 10 -86 10 -124 0 -182 34 -213 124 -7 19 -12 49
-12 67 l0 34 80 0 79 0 9 -32 c11 -44 51 -64 89 -46 63 30 34 72 -65 93 -130
27 -175 65 -188 157 -13 92 38 180 117 205 57 18 179 15 224 -6z m1055 -7 c47
-27 81 -91 87 -164 l6 -60 -87 0 -86 0 0 33 c0 67 -52 98 -100 59 -20 -16 -23
-30 -28 -118 -5 -120 8 -181 44 -194 45 -18 84 11 84 61 0 17 8 19 86 19 l87
0 -7 -52 c-7 -53 -48 -138 -66 -138 -6 0 -10 -4 -10 -10 0 -5 9 -10 20 -10 36
0 106 -79 124 -139 22 -73 21 -249 0 -321 -29 -99 -104 -150 -219 -150 -79 0
-126 18 -171 65 -52 54 -68 113 -68 250 0 119 20 196 64 242 16 18 30 34 30
36 0 3 -11 8 -25 11 -14 4 -43 22 -65 42 -56 51 -74 111 -74 254 0 171 33 251
118 292 57 26 206 22 256 -8z m516 -3 c53 -24 80 -60 95 -125 17 -76 -2 -156
-47 -201 l-34 -34 45 -107 c27 -64 41 -110 35 -114 -5 -3 4 -14 21 -24 43 -25
69 -87 69 -164 0 -72 -17 -121 -56 -157 l-26 -25 41 -102 c23 -57 41 -107 41
-111 0 -4 -39 -6 -87 -5 l-86 3 -36 97 c-20 54 -42 98 -48 98 -10 0 -13 -27
-13 -100 l0 -100 -80 0 -80 0 0 295 0 295 -45 0 -45 0 0 300 0 300 148 0 c121
0 154 -4 188 -19z m584 -51 l0 -70 -110 0 -110 0 0 -40 0 -40 95 0 96 0 -3
-72 -3 -73 -92 -3 -93 -3 0 -44 0 -45 110 0 110 0 0 -68 0 -68 34 -12 c49 -18
93 -72 112 -139 25 -86 16 -262 -17 -329 -45 -91 -104 -114 -296 -114 l-133 0
0 295 0 295 -45 0 -45 0 0 300 0 300 195 0 195 0 0 -70z m500 0 l0 -70 -65 0
-65 0 0 -230 0 -230 -80 0 -80 0 0 230 0 230 -65 0 -65 0 0 70 0 70 210 0 210
0 0 -70z m134 -779 c34 -16 89 -53 124 -81 l64 -51 35 28 c133 107 226 150
309 140 51 -5 78 -26 106 -81 38 -74 43 -223 12 -332 -5 -18 4 -24 71 -49 95
-34 188 -95 226 -148 33 -45 39 -109 15 -155 -33 -62 -154 -148 -254 -179
l-54 -17 9 -56 c4 -30 8 -96 8 -145 -1 -79 -4 -99 -29 -148 -32 -67 -68 -91
-136 -90 -64 0 -144 35 -224 96 -38 28 -74 56 -81 61 -8 6 -33 -9 -75 -42
-107 -86 -220 -129 -298 -111 -47 10 -95 64 -112 125 -13 44 -9 230 6 280 5
19 -2 25 -64 48 -121 46 -208 110 -243 178 -23 44 -24 74 -5 120 30 70 113
133 244 184 l73 28 -8 45 c-4 26 -8 96 -8 156 0 99 3 114 25 154 50 88 142
103 264 42z"/>
<path d="M994 3467 c-63 -30 -84 -70 -84 -155 0 -50 4 -66 25 -90 29 -35 79
-57 152 -67 96 -13 136 -78 77 -124 -49 -39 -115 -22 -135 33 -13 36 -13 36
-72 36 l-60 0 7 -42 c16 -101 77 -143 206 -143 135 0 191 45 198 158 6 105
-41 152 -177 175 -75 13 -101 33 -101 77 0 41 27 65 71 65 42 -1 66 -18 80
-59 11 -30 13 -31 71 -31 l60 0 -7 38 c-19 105 -66 143 -184 149 -65 3 -84 0
-127 -20z"/>
<path d="M1450 3200 l0 -280 170 0 170 0 0 50 0 50 -110 0 -110 0 0 70 0 70
90 0 90 0 0 50 0 50 -90 0 -90 0 0 60 0 60 110 0 110 0 0 50 0 50 -170 0 -170
0 0 -280z"/>
<path d="M1653 2878 c3 -13 14 -74 23 -136 10 -61 21 -109 25 -105 6 8 29 191
29 238 0 23 -4 25 -41 25 -38 0 -41 -2 -36 -22z"/>
<path d="M1220 2878 c1 -7 20 -132 43 -278 l43 -265 80 -3 81 -3 33 195 c33
192 42 227 56 214 5 -6 74 -375 74 -401 0 -4 37 -7 82 -5 l82 3 42 265 c24
146 43 271 43 278 1 8 -17 12 -58 12 -70 0 -63 18 -86 -205 -18 -169 -21 -183
-36 -168 -8 8 -69 324 -69 361 0 8 -23 12 -80 12 -44 0 -80 -3 -80 -7 0 -32
-62 -359 -70 -367 -14 -14 -17 2 -35 169 -23 223 -16 205 -86 205 -41 0 -59
-4 -59 -12z"/>
<path d="M2045 3476 c-81 -30 -115 -110 -115 -267 0 -136 14 -191 58 -238 46
-48 92 -61 183 -54 107 9 169 64 169 151 l0 32 -60 0 c-56 0 -60 -1 -60 -23 0
-31 -40 -67 -74 -67 -73 0 -96 47 -96 195 0 143 22 185 98 185 35 0 59 -25 73
-74 10 -36 10 -36 64 -36 l55 0 0 45 c0 58 -29 115 -71 139 -44 26 -168 32
-224 12z"/>
<path d="M2165 2891 c-62 -8 -87 -22 -119 -64 -35 -46 -49 -121 -44 -246 4
-123 29 -190 86 -228 65 -43 207 -39 266 8 46 36 69 103 74 213 11 252 -66
345 -263 317z m102 -106 c12 -9 27 -32 33 -53 11 -41 14 -182 4 -230 -18 -90
-127 -111 -166 -32 -14 27 -18 60 -18 138 0 109 14 161 47 181 26 15 75 13
100 -4z"/>
<path d="M2178 2769 c-24 -14 -38 -71 -38 -159 0 -134 30 -185 94 -160 35 13
47 41 53 123 12 157 -34 240 -109 196z"/>
<path d="M2490 3201 l0 -281 55 0 55 0 0 100 0 100 34 0 c27 0 36 -5 41 -22 4
-13 21 -58 37 -100 l29 -78 64 0 63 0 -43 107 -43 108 26 17 c43 28 62 74 62
148 0 79 -21 126 -70 155 -30 17 -56 21 -172 23 l-138 4 0 -281z m240 159 c24
-24 27 -87 6 -115 -11 -15 -27 -19 -72 -20 l-59 0 -3 78 -3 77 56 0 c42 0 60
-5 75 -20z"/>
<path d="M2630 3299 l0 -62 41 6 c46 6 59 19 59 59 0 36 -25 58 -66 58 l-34 0
0 -61z"/>
<path d="M2630 3005 l0 -95 45 0 44 0 -26 68 c-14 37 -30 79 -35 95 -18 51
-28 27 -28 -68z"/>
<path d="M2570 2611 l0 -281 60 0 60 0 0 101 0 100 31 -3 c30 -3 33 -8 67
-100 l36 -98 63 0 c35 0 63 3 63 6 0 3 -19 50 -42 105 l-41 100 35 29 c60 50
76 174 32 249 -32 55 -65 65 -221 69 l-143 4 0 -281z m237 171 c19 -12 34 -63
28 -94 -9 -39 -41 -58 -97 -58 l-48 0 0 80 0 80 53 0 c28 0 57 -4 64 -8z"/>
<path d="M2712 2713 l3 -58 38 1 c47 2 60 14 60 55 0 39 -24 59 -70 59 l-34 0
3 -57z"/>
<path d="M3020 3200 l0 -280 170 0 170 0 0 50 0 49 -112 3 -113 3 0 65 0 65
93 3 92 3 0 49 0 50 -95 0 -95 0 0 60 0 60 115 0 115 0 0 50 0 50 -170 0 -170
0 0 -280z"/>
<path d="M3100 2609 l0 -281 133 4 c116 3 138 6 182 28 39 20 55 35 75 75 23
45 25 61 25 170 0 237 -50 285 -297 285 l-118 0 0 -281z m246 162 c40 -24 59
-94 52 -190 -8 -113 -44 -151 -139 -151 l-39 0 0 180 0 180 48 0 c29 0 59 -7
78 -19z"/>
<path d="M3250 2610 l0 -161 38 6 c20 4 47 18 60 31 19 22 22 36 22 119 0 108
-11 140 -53 155 -69 24 -67 27 -67 -150z"/>
<path d="M3480 3430 l0 -50 65 0 65 0 0 -230 0 -230 60 0 60 0 0 230 0 230 65
0 65 0 0 50 0 50 -190 0 -190 0 0 -50z"/>
<path d="M4485 2620 c-55 -12 -150 -70 -208 -125 l-27 -26 66 -82 66 -82 106
-18 c58 -9 107 -16 109 -14 8 9 23 117 23 171 0 139 -45 198 -135 176z"/>
<path d="M3825 2603 c-38 -38 -50 -126 -34 -245 12 -89 12 -90 38 -85 14 3 63
11 109 18 l83 13 52 64 c91 113 88 100 37 143 -103 89 -243 134 -285 92z"/>
<path d="M4180 2393 c-14 -15 -36 -40 -49 -55 l-24 -28 92 0 c104 0 104 0 39
73 l-33 39 -25 -29z"/>
<path d="M4003 2152 c-28 -48 -60 -105 -71 -128 l-21 -41 36 -64 c19 -35 53
-92 75 -126 l40 -63 139 0 138 0 24 33 c14 17 48 74 77 126 l53 94 -27 56
c-15 31 -48 89 -73 129 l-44 72 -147 0 -147 0 -52 -88z m251 -36 c74 -31 109
-129 70 -194 -41 -69 -132 -92 -194 -50 -94 63 -88 190 11 240 41 22 69 22
113 4z"/>
<path d="M3888 2218 c-32 -6 -58 -15 -58 -22 0 -11 39 -118 45 -124 4 -4 85
138 85 149 0 5 -3 8 -7 8 -5 -1 -34 -6 -65 -11z"/>
<path d="M4443 2218 c2 -7 23 -44 45 -83 l41 -69 11 29 c30 76 38 105 32 109
-4 2 -25 7 -47 11 -22 3 -51 8 -64 11 -17 4 -22 1 -18 -8z"/>
<path d="M3694 2166 c-83 -31 -145 -68 -184 -112 -63 -72 -25 -146 114 -216
33 -17 77 -36 97 -43 l38 -14 17 47 c10 26 27 73 40 104 l22 56 -34 84 c-18
46 -34 88 -34 95 0 21 -14 21 -76 -1z"/>
<path d="M4607 2088 l-39 -99 36 -88 c20 -49 36 -94 36 -100 0 -20 33 -11 126
34 93 45 148 93 160 139 15 62 -81 144 -230 196 l-51 17 -38 -99z"/>
<path d="M4483 1832 c-24 -41 -41 -77 -39 -80 6 -6 111 9 126 18 10 6 8 20
-10 67 -13 32 -26 61 -29 65 -3 3 -25 -28 -48 -70z"/>
<path d="M3852 1845 c-12 -31 -22 -62 -22 -69 0 -12 125 -38 134 -28 4 4 -67
129 -82 144 -5 5 -18 -14 -30 -47z"/>
<path d="M3790 1616 c-14 -101 -7 -179 20 -224 33 -54 95 -55 197 -1 63 33
143 95 143 110 0 7 -94 132 -125 167 -2 2 -34 8 -72 12 -37 5 -87 12 -109 16
l-42 6 -12 -86z"/>
<path d="M4467 1685 c-43 -6 -82 -16 -86 -21 -5 -5 -36 -44 -70 -86 l-61 -77
58 -47 c70 -58 165 -104 213 -104 42 0 74 29 89 81 11 37 12 186 1 234 -7 36
-27 39 -144 20z"/>
<path d="M4120 1658 c1 -18 76 -101 88 -97 13 5 82 89 82 100 0 5 -38 9 -85 9
-61 0 -85 -3 -85 -12z"/>
</g>
</svg>
